<mxfile host="Electron" agent="Mozilla/5.0 (Windows NT 10.0; Win64; x64) AppleWebKit/537.36 (KHTML, like Gecko) draw.io/24.7.17 Chrome/128.0.6613.36 Electron/32.0.1 Safari/537.36" version="24.7.17">
  <diagram id="C5RBs43oDa-KdzZeNtuy" name="Page-1">
    <mxGraphModel dx="2307" dy="2035" grid="1" gridSize="10" guides="1" tooltips="1" connect="1" arrows="1" fold="1" page="1" pageScale="1" pageWidth="827" pageHeight="1169" math="0" shadow="0">
      <root>
        <mxCell id="WIyWlLk6GJQsqaUBKTNV-0" />
        <mxCell id="WIyWlLk6GJQsqaUBKTNV-1" parent="WIyWlLk6GJQsqaUBKTNV-0" />
        <mxCell id="yAmIN_Nm5EW7O2y_QFG9-3" value="" style="edgeStyle=orthogonalEdgeStyle;rounded=0;orthogonalLoop=1;jettySize=auto;html=1;" parent="WIyWlLk6GJQsqaUBKTNV-1" source="WIyWlLk6GJQsqaUBKTNV-3" target="yAmIN_Nm5EW7O2y_QFG9-2" edge="1">
          <mxGeometry relative="1" as="geometry" />
        </mxCell>
        <mxCell id="WIyWlLk6GJQsqaUBKTNV-3" value="Login" style="rounded=1;whiteSpace=wrap;html=1;fontSize=12;glass=0;strokeWidth=1;shadow=0;" parent="WIyWlLk6GJQsqaUBKTNV-1" vertex="1">
          <mxGeometry x="160" y="80" width="120" height="40" as="geometry" />
        </mxCell>
        <mxCell id="S8rLOoy-q-VroVJbk5sI-5" style="edgeStyle=orthogonalEdgeStyle;rounded=0;orthogonalLoop=1;jettySize=auto;html=1;entryX=0.5;entryY=0;entryDx=0;entryDy=0;" parent="WIyWlLk6GJQsqaUBKTNV-1" source="yAmIN_Nm5EW7O2y_QFG9-0" target="WIyWlLk6GJQsqaUBKTNV-3" edge="1">
          <mxGeometry relative="1" as="geometry">
            <mxPoint x="300" y="30" as="sourcePoint" />
          </mxGeometry>
        </mxCell>
        <mxCell id="yAmIN_Nm5EW7O2y_QFG9-0" value="" style="strokeWidth=2;html=1;shape=mxgraph.flowchart.start_2;whiteSpace=wrap;" parent="WIyWlLk6GJQsqaUBKTNV-1" vertex="1">
          <mxGeometry x="195" y="-30" width="50" height="50" as="geometry" />
        </mxCell>
        <mxCell id="yAmIN_Nm5EW7O2y_QFG9-1" value="" style="strokeWidth=2;html=1;shape=mxgraph.flowchart.start_2;whiteSpace=wrap;" parent="WIyWlLk6GJQsqaUBKTNV-1" vertex="1">
          <mxGeometry x="350" y="635" width="50" height="50" as="geometry" />
        </mxCell>
        <mxCell id="yAmIN_Nm5EW7O2y_QFG9-2" value="Nhập dữ liệu" style="rounded=1;whiteSpace=wrap;html=1;fontSize=12;glass=0;strokeWidth=1;shadow=0;" parent="WIyWlLk6GJQsqaUBKTNV-1" vertex="1">
          <mxGeometry x="160" y="190" width="120" height="40" as="geometry" />
        </mxCell>
        <mxCell id="yAmIN_Nm5EW7O2y_QFG9-11" style="edgeStyle=orthogonalEdgeStyle;rounded=0;orthogonalLoop=1;jettySize=auto;html=1;" parent="WIyWlLk6GJQsqaUBKTNV-1" source="yAmIN_Nm5EW7O2y_QFG9-4" target="yAmIN_Nm5EW7O2y_QFG9-10" edge="1">
          <mxGeometry relative="1" as="geometry" />
        </mxCell>
        <mxCell id="yAmIN_Nm5EW7O2y_QFG9-12" value="Thất bại" style="edgeLabel;html=1;align=center;verticalAlign=middle;resizable=0;points=[];" parent="yAmIN_Nm5EW7O2y_QFG9-11" vertex="1" connectable="0">
          <mxGeometry x="-0.4673" relative="1" as="geometry">
            <mxPoint as="offset" />
          </mxGeometry>
        </mxCell>
        <mxCell id="yAmIN_Nm5EW7O2y_QFG9-4" value="" style="strokeWidth=2;html=1;shape=mxgraph.flowchart.decision;whiteSpace=wrap;" parent="WIyWlLk6GJQsqaUBKTNV-1" vertex="1">
          <mxGeometry x="190" y="290" width="60" height="60" as="geometry" />
        </mxCell>
        <mxCell id="yAmIN_Nm5EW7O2y_QFG9-5" style="edgeStyle=orthogonalEdgeStyle;rounded=0;orthogonalLoop=1;jettySize=auto;html=1;entryX=0.5;entryY=0;entryDx=0;entryDy=0;entryPerimeter=0;" parent="WIyWlLk6GJQsqaUBKTNV-1" source="yAmIN_Nm5EW7O2y_QFG9-2" target="yAmIN_Nm5EW7O2y_QFG9-4" edge="1">
          <mxGeometry relative="1" as="geometry" />
        </mxCell>
        <mxCell id="yAmIN_Nm5EW7O2y_QFG9-6" value="Trang chủ Admin" style="rounded=1;whiteSpace=wrap;html=1;fontSize=12;glass=0;strokeWidth=1;shadow=0;" parent="WIyWlLk6GJQsqaUBKTNV-1" vertex="1">
          <mxGeometry x="50" y="640" width="120" height="40" as="geometry" />
        </mxCell>
        <mxCell id="yAmIN_Nm5EW7O2y_QFG9-13" style="edgeStyle=orthogonalEdgeStyle;rounded=0;orthogonalLoop=1;jettySize=auto;html=1;" parent="WIyWlLk6GJQsqaUBKTNV-1" source="yAmIN_Nm5EW7O2y_QFG9-10" target="yAmIN_Nm5EW7O2y_QFG9-1" edge="1">
          <mxGeometry relative="1" as="geometry">
            <mxPoint x="500" y="550" as="targetPoint" />
            <Array as="points">
              <mxPoint x="514" y="430" />
              <mxPoint x="375" y="430" />
            </Array>
          </mxGeometry>
        </mxCell>
        <mxCell id="yAmIN_Nm5EW7O2y_QFG9-10" value="Thông báo sai thông tin&amp;nbsp;" style="rounded=1;whiteSpace=wrap;html=1;fontSize=12;glass=0;strokeWidth=1;shadow=0;" parent="WIyWlLk6GJQsqaUBKTNV-1" vertex="1">
          <mxGeometry x="450" y="320" width="120" height="40" as="geometry" />
        </mxCell>
        <mxCell id="whzc10OEu4IuFkB_dUE--0" value="" style="endArrow=classic;html=1;rounded=0;exitX=0;exitY=0.5;exitDx=0;exitDy=0;exitPerimeter=0;entryX=0.5;entryY=0;entryDx=0;entryDy=0;" parent="WIyWlLk6GJQsqaUBKTNV-1" source="yAmIN_Nm5EW7O2y_QFG9-4" target="whzc10OEu4IuFkB_dUE--2" edge="1">
          <mxGeometry width="50" height="50" relative="1" as="geometry">
            <mxPoint x="390" y="500" as="sourcePoint" />
            <mxPoint x="80" y="320" as="targetPoint" />
            <Array as="points">
              <mxPoint x="80" y="320" />
            </Array>
          </mxGeometry>
        </mxCell>
        <mxCell id="whzc10OEu4IuFkB_dUE--1" value="Thành công" style="edgeLabel;html=1;align=center;verticalAlign=middle;resizable=0;points=[];" parent="whzc10OEu4IuFkB_dUE--0" vertex="1" connectable="0">
          <mxGeometry x="0.1636" y="1" relative="1" as="geometry">
            <mxPoint x="39" y="-11" as="offset" />
          </mxGeometry>
        </mxCell>
        <mxCell id="whzc10OEu4IuFkB_dUE--12" value="" style="edgeStyle=orthogonalEdgeStyle;rounded=0;orthogonalLoop=1;jettySize=auto;html=1;" parent="WIyWlLk6GJQsqaUBKTNV-1" source="whzc10OEu4IuFkB_dUE--2" target="whzc10OEu4IuFkB_dUE--4" edge="1">
          <mxGeometry relative="1" as="geometry" />
        </mxCell>
        <mxCell id="whzc10OEu4IuFkB_dUE--13" value="Thất bại" style="edgeLabel;html=1;align=center;verticalAlign=middle;resizable=0;points=[];" parent="whzc10OEu4IuFkB_dUE--12" vertex="1" connectable="0">
          <mxGeometry x="0.0647" relative="1" as="geometry">
            <mxPoint as="offset" />
          </mxGeometry>
        </mxCell>
        <mxCell id="whzc10OEu4IuFkB_dUE--2" value="Nhập OTP" style="rounded=1;whiteSpace=wrap;html=1;fontSize=12;glass=0;strokeWidth=1;shadow=0;" parent="WIyWlLk6GJQsqaUBKTNV-1" vertex="1">
          <mxGeometry x="20" y="400" width="120" height="40" as="geometry" />
        </mxCell>
        <mxCell id="whzc10OEu4IuFkB_dUE--3" value="" style="endArrow=classic;html=1;rounded=0;exitX=1;exitY=0.5;exitDx=0;exitDy=0;entryX=0;entryY=0.5;entryDx=0;entryDy=0;entryPerimeter=0;" parent="WIyWlLk6GJQsqaUBKTNV-1" source="yAmIN_Nm5EW7O2y_QFG9-6" target="yAmIN_Nm5EW7O2y_QFG9-1" edge="1">
          <mxGeometry width="50" height="50" relative="1" as="geometry">
            <mxPoint x="390" y="560" as="sourcePoint" />
            <mxPoint x="440" y="510" as="targetPoint" />
          </mxGeometry>
        </mxCell>
        <mxCell id="whzc10OEu4IuFkB_dUE--4" value="Thông báo lỗi nhâp OTP" style="rounded=1;whiteSpace=wrap;html=1;fontSize=12;glass=0;strokeWidth=1;shadow=0;" parent="WIyWlLk6GJQsqaUBKTNV-1" vertex="1">
          <mxGeometry x="40" y="500" width="120" height="40" as="geometry" />
        </mxCell>
        <mxCell id="whzc10OEu4IuFkB_dUE--10" style="edgeStyle=orthogonalEdgeStyle;rounded=0;orthogonalLoop=1;jettySize=auto;html=1;entryX=0;entryY=0.5;entryDx=0;entryDy=0;exitX=0.5;exitY=1;exitDx=0;exitDy=0;" parent="WIyWlLk6GJQsqaUBKTNV-1" source="whzc10OEu4IuFkB_dUE--5" target="yAmIN_Nm5EW7O2y_QFG9-6" edge="1">
          <mxGeometry relative="1" as="geometry">
            <mxPoint x="10" y="560" as="sourcePoint" />
          </mxGeometry>
        </mxCell>
        <mxCell id="whzc10OEu4IuFkB_dUE--5" value="Nhập thành công OTP" style="rounded=1;whiteSpace=wrap;html=1;fontSize=12;glass=0;strokeWidth=1;shadow=0;" parent="WIyWlLk6GJQsqaUBKTNV-1" vertex="1">
          <mxGeometry x="-110" y="480" width="120" height="40" as="geometry" />
        </mxCell>
        <mxCell id="whzc10OEu4IuFkB_dUE--8" style="edgeStyle=orthogonalEdgeStyle;rounded=0;orthogonalLoop=1;jettySize=auto;html=1;entryX=0.592;entryY=-0.025;entryDx=0;entryDy=0;entryPerimeter=0;" parent="WIyWlLk6GJQsqaUBKTNV-1" source="whzc10OEu4IuFkB_dUE--2" target="whzc10OEu4IuFkB_dUE--5" edge="1">
          <mxGeometry relative="1" as="geometry" />
        </mxCell>
        <mxCell id="whzc10OEu4IuFkB_dUE--9" value="Thành công" style="edgeLabel;html=1;align=center;verticalAlign=middle;resizable=0;points=[];" parent="whzc10OEu4IuFkB_dUE--8" vertex="1" connectable="0">
          <mxGeometry x="-0.4237" y="-1" relative="1" as="geometry">
            <mxPoint x="-6" y="-9" as="offset" />
          </mxGeometry>
        </mxCell>
      </root>
    </mxGraphModel>
  </diagram>
</mxfile>
